<svg xmlns="http://www.w3.org/2000/svg" width="18" height="18"><g transform="translate(0.5 3.5) scale(0.75)"><path d="M 0 15.5 C 0 15.224 0.224 15 0.5 15 L 9.5 15 C 9.776 15 10 15.224 10 15.5 L 10 16.5 C 10 16.776 9.776 17 9.5 17 L 0.5 17 C 0.224 17 0 16.776 0 16.5 Z" fill="currentColor" stroke="#fff" stroke-width="1" stroke-linecap="round" stroke-linejoin="round"></path><path d="M 0 8 C 0 7.724 0.224 7.5 0.5 7.5 L 17.5 7.5 C 17.776 7.5 18 7.724 18 8 L 18 9 C 18 9.276 17.776 9.5 17.5 9.5 L 0.5 9.5 C 0.224 9.5 0 9.276 0 9 Z" fill="currentColor" stroke="#fff" stroke-width="1" stroke-linecap="round" stroke-linejoin="round"></path><path d="M 0 0.5 C 0 0.224 0.224 0 0.5 0 L 22.5 0 C 22.776 0 23 0.224 23 0.5 L 23 1.5 C 23 1.776 22.776 2 22.5 2 L 0.5 2 C 0.224 2 0 1.776 0 1.5 Z" fill="currentColor" stroke="#fff" stroke-width="1" stroke-linecap="round" stroke-linejoin="round"></path></g></svg>